# xmcd
#
# Track frame offsets:
# 183
# 13198
# 26160
# 38970
# 52373
# 66165
# 79135
# 90638
# 104260
# 117118
# 130350
# 143083
# 156818
# 169835
# 182443
# 194285
# 207850
# 219053
#
# Disc length: 3098 seconds
#
# Revision: 0
# Processed by: cddbd v1.4PL0 Copyright (c) Steve Scherf et al.
# Submitted via: Axialis_AX_CDPlayer 2.6
#
DISCID=fc0c1812
DTITLE=Bill Bill Broonzy - Key To The Highway
DYEAR=1900
DGENRE=
TTITLE0=How You Want It Done
TTITLE1=Bull Cow Blues
TTITLE2=Long Tall Mama
TTITLE3=C and A Blues
TTITLE4=Big Bill Blues Blues
TTITLE5=You Know I Got a Reason
TTITLE6=Baby, I Done Got Wise
TTITLE7=You Better Cut That Out
TTITLE8=Just a Dream
TTITLE9=Lonesome Road Blues
TTITLE10=Rockin' Chair Blues
TTITLE11=Key to the Highway
TTITLE12=When I Been Drinkin'
TTITLE13=I Feel so Good
TTITLE14=Too Many Drivers
TTITLE15=Looking Up and Down
TTITLE16=All By Myself
TTITLE17=Wee Wee Hours Blues
EXTD=
EXTT0=
EXTT1=
EXTT2=
EXTT3=
EXTT4=
EXTT5=
EXTT6=
EXTT7=
EXTT8=
EXTT9=
EXTT10=
EXTT11=
EXTT12=
EXTT13=
EXTT14=
EXTT15=
EXTT16=
EXTT17=
PLAYORDER=
